<mxfile host="www.draw.io" modified="2019-11-19T13:08:39.643Z" agent="Mozilla/5.0 (Macintosh; Intel Mac OS X 10_14_6) AppleWebKit/537.36 (KHTML, like Gecko) Chrome/78.0.3904.97 Safari/537.36" etag="L79lVi21NuDs-RCiB75o" version="12.2.7" type="github" pages="1">
  <diagram id="Gi4XIIo64hKZGPLNM7iN" name="Page-1">
    <mxGraphModel dx="969" dy="740" grid="1" gridSize="10" guides="1" tooltips="1" connect="1" arrows="1" fold="1" page="1" pageScale="1" pageWidth="827" pageHeight="1169" math="0" shadow="0">
      <root>
        <mxCell id="0"/>
        <mxCell id="1" parent="0"/>
        <mxCell id="uvM5kie0KDkV7c-IntWh-2" value="&amp;nbsp; &amp;nbsp; &amp;nbsp; &amp;nbsp;风险模型&lt;br&gt;&lt;br&gt;&lt;br&gt;&lt;br&gt;&lt;br&gt;&lt;br&gt;&lt;br&gt;&lt;br&gt;&lt;br&gt;&lt;br&gt;&lt;br&gt;&lt;br&gt;" style="rounded=1;whiteSpace=wrap;html=1;align=left;fillColor=#CCCCFF;" parent="1" vertex="1">
          <mxGeometry x="160" y="404" width="390" height="240" as="geometry"/>
        </mxCell>
        <mxCell id="uvM5kie0KDkV7c-IntWh-3" value="变更平台" style="rounded=1;whiteSpace=wrap;html=1;fillColor=#CCFFFF;" parent="1" vertex="1">
          <mxGeometry x="162" y="325" width="70" height="60" as="geometry"/>
        </mxCell>
        <mxCell id="uvM5kie0KDkV7c-IntWh-4" value="定位" style="rounded=1;whiteSpace=wrap;html=1;fillColor=#CCFFFF;" parent="1" vertex="1">
          <mxGeometry x="463.5" y="325" width="70" height="60" as="geometry"/>
        </mxCell>
        <mxCell id="uvM5kie0KDkV7c-IntWh-5" value="巡检" style="rounded=1;whiteSpace=wrap;html=1;fillColor=#CCFFFF;" parent="1" vertex="1">
          <mxGeometry x="366" y="255" width="70" height="60" as="geometry"/>
        </mxCell>
        <mxCell id="uvM5kie0KDkV7c-IntWh-6" value="风险基线" style="rounded=1;whiteSpace=wrap;html=1;fillColor=#CCFFFF;" parent="1" vertex="1">
          <mxGeometry x="263.5" y="255" width="70" height="60" as="geometry"/>
        </mxCell>
        <mxCell id="uvM5kie0KDkV7c-IntWh-7" value="&amp;nbsp; &amp;nbsp; 数据模型&lt;br&gt;&amp;nbsp; &amp;nbsp;&amp;nbsp;&lt;br&gt;&lt;br&gt;&lt;br&gt;&lt;br&gt;&lt;br&gt;&lt;br&gt;&lt;br&gt;&lt;br&gt;" style="rounded=1;whiteSpace=wrap;html=1;align=left;fillColor=#CC99FF;" parent="1" vertex="1">
          <mxGeometry x="170" y="464" width="370" height="170" as="geometry"/>
        </mxCell>
        <mxCell id="uvM5kie0KDkV7c-IntWh-8" value="&amp;nbsp; 元数据&lt;br&gt;&lt;br&gt;&lt;br&gt;&lt;br&gt;&lt;br&gt;" style="rounded=1;whiteSpace=wrap;html=1;align=left;fillColor=#B266FF;" parent="1" vertex="1">
          <mxGeometry x="180" y="524" width="350" height="100" as="geometry"/>
        </mxCell>
        <mxCell id="uvM5kie0KDkV7c-IntWh-9" value="大禹" style="rounded=0;whiteSpace=wrap;html=1;fillColor=#CCFFE6;" parent="1" vertex="1">
          <mxGeometry x="20" y="405" width="110" height="30" as="geometry"/>
        </mxCell>
        <mxCell id="uvM5kie0KDkV7c-IntWh-10" value="deps" style="rounded=0;whiteSpace=wrap;html=1;fillColor=#CCFFE6;" parent="1" vertex="1">
          <mxGeometry x="20" y="435" width="110" height="30" as="geometry"/>
        </mxCell>
        <mxCell id="uvM5kie0KDkV7c-IntWh-11" value="蓝军" style="rounded=0;whiteSpace=wrap;html=1;fillColor=#CCFFE6;" parent="1" vertex="1">
          <mxGeometry x="20" y="465" width="110" height="30" as="geometry"/>
        </mxCell>
        <mxCell id="uvM5kie0KDkV7c-IntWh-12" value="antpim" style="rounded=0;whiteSpace=wrap;html=1;fillColor=#CCFFE6;" parent="1" vertex="1">
          <mxGeometry x="20" y="495" width="110" height="30" as="geometry"/>
        </mxCell>
        <mxCell id="uvM5kie0KDkV7c-IntWh-13" value="zpaas" style="rounded=0;whiteSpace=wrap;html=1;fillColor=#CCFFE6;" parent="1" vertex="1">
          <mxGeometry x="20" y="525" width="110" height="30" as="geometry"/>
        </mxCell>
        <mxCell id="uvM5kie0KDkV7c-IntWh-14" value="omc" style="rounded=0;whiteSpace=wrap;html=1;fillColor=#CCFFE6;" parent="1" vertex="1">
          <mxGeometry x="20" y="555" width="110" height="30" as="geometry"/>
        </mxCell>
        <mxCell id="uvM5kie0KDkV7c-IntWh-15" value="tairmanager" style="rounded=0;whiteSpace=wrap;html=1;fillColor=#CCFFE6;" parent="1" vertex="1">
          <mxGeometry x="20" y="585" width="110" height="30" as="geometry"/>
        </mxCell>
        <mxCell id="uvM5kie0KDkV7c-IntWh-16" value="skyline" style="rounded=0;whiteSpace=wrap;html=1;fillColor=#CCFFE6;" parent="1" vertex="1">
          <mxGeometry x="20" y="615" width="110" height="30" as="geometry"/>
        </mxCell>
        <mxCell id="uvM5kie0KDkV7c-IntWh-19" value="技术风险开发" style="shape=umlActor;verticalLabelPosition=bottom;labelBackgroundColor=#ffffff;verticalAlign=top;html=1;outlineConnect=0;fillColor=#FFFFCC;" parent="1" vertex="1">
          <mxGeometry x="580" y="315" width="30" height="60" as="geometry"/>
        </mxCell>
        <mxCell id="uvM5kie0KDkV7c-IntWh-20" value="SRE" style="shape=umlActor;verticalLabelPosition=bottom;labelBackgroundColor=#ffffff;verticalAlign=top;html=1;outlineConnect=0;fillColor=#FFFFCC;" parent="1" vertex="1">
          <mxGeometry x="580" y="415" width="30" height="60" as="geometry"/>
        </mxCell>
        <mxCell id="uvM5kie0KDkV7c-IntWh-21" value="领域专家" style="shape=umlActor;verticalLabelPosition=bottom;labelBackgroundColor=#ffffff;verticalAlign=top;html=1;outlineConnect=0;fillColor=#FFFFCC;" parent="1" vertex="1">
          <mxGeometry x="580" y="525" width="30" height="60" as="geometry"/>
        </mxCell>
        <mxCell id="uvM5kie0KDkV7c-IntWh-26" value="容灾切换" style="rounded=1;whiteSpace=wrap;html=1;fillColor=#CCFFFF;" parent="1" vertex="1">
          <mxGeometry x="162" y="255" width="70" height="60" as="geometry"/>
        </mxCell>
        <mxCell id="uvM5kie0KDkV7c-IntWh-27" value="性能容量" style="rounded=1;whiteSpace=wrap;html=1;fillColor=#CCFFFF;" parent="1" vertex="1">
          <mxGeometry x="463.5" y="255" width="70" height="60" as="geometry"/>
        </mxCell>
        <mxCell id="uvM5kie0KDkV7c-IntWh-28" value="应急" style="rounded=1;whiteSpace=wrap;html=1;fillColor=#CCFFFF;" parent="1" vertex="1">
          <mxGeometry x="366" y="325" width="70" height="60" as="geometry"/>
        </mxCell>
        <mxCell id="uvM5kie0KDkV7c-IntWh-29" value="演练" style="rounded=1;whiteSpace=wrap;html=1;fillColor=#CCFFFF;" parent="1" vertex="1">
          <mxGeometry x="263.5" y="325" width="70" height="60" as="geometry"/>
        </mxCell>
        <mxCell id="uvM5kie0KDkV7c-IntWh-30" value="" style="shape=flexArrow;endArrow=classic;html=1;endWidth=60;endSize=9.26;width=86;fillColor=#80FF00;" parent="1" edge="1">
          <mxGeometry width="50" height="50" relative="1" as="geometry">
            <mxPoint x="131" y="535" as="sourcePoint"/>
            <mxPoint x="161" y="535" as="targetPoint"/>
          </mxGeometry>
        </mxCell>
        <mxCell id="uvM5kie0KDkV7c-IntWh-33" value="" style="shape=flexArrow;endArrow=classic;html=1;endWidth=102;endSize=6;width=86;fillColor=#80FF00;" parent="1" edge="1">
          <mxGeometry width="50" height="50" relative="1" as="geometry">
            <mxPoint x="355" y="405" as="sourcePoint"/>
            <mxPoint x="355" y="385" as="targetPoint"/>
          </mxGeometry>
        </mxCell>
        <mxCell id="uvM5kie0KDkV7c-IntWh-40" style="edgeStyle=orthogonalEdgeStyle;rounded=0;orthogonalLoop=1;jettySize=auto;html=1;exitX=1;exitY=0.5;exitDx=0;exitDy=0;entryX=0;entryY=0.5;entryDx=0;entryDy=0;fillColor=#80FF00;" parent="1" source="uvM5kie0KDkV7c-IntWh-36" target="uvM5kie0KDkV7c-IntWh-37" edge="1">
          <mxGeometry relative="1" as="geometry"/>
        </mxCell>
        <mxCell id="uvM5kie0KDkV7c-IntWh-36" value="数据拉取" style="rounded=1;whiteSpace=wrap;html=1;fillColor=#7F00FF;" parent="1" vertex="1">
          <mxGeometry x="192.5" y="565" width="70" height="40" as="geometry"/>
        </mxCell>
        <mxCell id="uvM5kie0KDkV7c-IntWh-41" style="edgeStyle=orthogonalEdgeStyle;rounded=0;orthogonalLoop=1;jettySize=auto;html=1;exitX=1;exitY=0.5;exitDx=0;exitDy=0;entryX=0;entryY=0.5;entryDx=0;entryDy=0;fillColor=#80FF00;" parent="1" source="uvM5kie0KDkV7c-IntWh-37" target="uvM5kie0KDkV7c-IntWh-38" edge="1">
          <mxGeometry relative="1" as="geometry"/>
        </mxCell>
        <mxCell id="uvM5kie0KDkV7c-IntWh-37" value="数据保鲜" style="rounded=1;whiteSpace=wrap;html=1;fillColor=#7F00FF;" parent="1" vertex="1">
          <mxGeometry x="277.5" y="565" width="70" height="40" as="geometry"/>
        </mxCell>
        <mxCell id="uvM5kie0KDkV7c-IntWh-42" style="edgeStyle=orthogonalEdgeStyle;rounded=0;orthogonalLoop=1;jettySize=auto;html=1;exitX=1;exitY=0.5;exitDx=0;exitDy=0;entryX=0;entryY=0.5;entryDx=0;entryDy=0;fillColor=#80FF00;" parent="1" source="uvM5kie0KDkV7c-IntWh-38" target="uvM5kie0KDkV7c-IntWh-39" edge="1">
          <mxGeometry relative="1" as="geometry"/>
        </mxCell>
        <mxCell id="uvM5kie0KDkV7c-IntWh-38" value="关系组装" style="rounded=1;whiteSpace=wrap;html=1;fillColor=#7F00FF;" parent="1" vertex="1">
          <mxGeometry x="362.5" y="565" width="70" height="40" as="geometry"/>
        </mxCell>
        <mxCell id="uvM5kie0KDkV7c-IntWh-39" value="数据查询" style="rounded=1;whiteSpace=wrap;html=1;fillColor=#7F00FF;" parent="1" vertex="1">
          <mxGeometry x="447.5" y="565" width="70" height="40" as="geometry"/>
        </mxCell>
        <mxCell id="uvM5kie0KDkV7c-IntWh-44" value="模型填充" style="rounded=1;whiteSpace=wrap;html=1;fillColor=#B266FF;" parent="1" vertex="1">
          <mxGeometry x="447.5" y="474" width="70" height="40" as="geometry"/>
        </mxCell>
        <mxCell id="uvM5kie0KDkV7c-IntWh-47" style="edgeStyle=orthogonalEdgeStyle;rounded=0;orthogonalLoop=1;jettySize=auto;html=1;exitX=1;exitY=0.5;exitDx=0;exitDy=0;entryX=0;entryY=0.5;entryDx=0;entryDy=0;fillColor=#80FF00;" parent="1" source="uvM5kie0KDkV7c-IntWh-45" target="uvM5kie0KDkV7c-IntWh-46" edge="1">
          <mxGeometry relative="1" as="geometry"/>
        </mxCell>
        <mxCell id="uvM5kie0KDkV7c-IntWh-45" value="模型编写" style="rounded=1;whiteSpace=wrap;html=1;fillColor=#B266FF;" parent="1" vertex="1">
          <mxGeometry x="277.5" y="474" width="70" height="40" as="geometry"/>
        </mxCell>
        <mxCell id="uvM5kie0KDkV7c-IntWh-49" style="edgeStyle=orthogonalEdgeStyle;rounded=0;orthogonalLoop=1;jettySize=auto;html=1;exitX=1;exitY=0.5;exitDx=0;exitDy=0;entryX=0;entryY=0.5;entryDx=0;entryDy=0;fillColor=#80FF00;" parent="1" source="uvM5kie0KDkV7c-IntWh-46" target="uvM5kie0KDkV7c-IntWh-44" edge="1">
          <mxGeometry relative="1" as="geometry"/>
        </mxCell>
        <mxCell id="uvM5kie0KDkV7c-IntWh-46" value="模型组装" style="rounded=1;whiteSpace=wrap;html=1;fillColor=#B266FF;" parent="1" vertex="1">
          <mxGeometry x="362.5" y="474" width="70" height="40" as="geometry"/>
        </mxCell>
        <mxCell id="uvM5kie0KDkV7c-IntWh-52" style="edgeStyle=orthogonalEdgeStyle;rounded=0;orthogonalLoop=1;jettySize=auto;html=1;exitX=1;exitY=0.5;exitDx=0;exitDy=0;entryX=0;entryY=0.5;entryDx=0;entryDy=0;fillColor=#CC99FF;" parent="1" source="uvM5kie0KDkV7c-IntWh-53" target="uvM5kie0KDkV7c-IntWh-55" edge="1">
          <mxGeometry relative="1" as="geometry"/>
        </mxCell>
        <mxCell id="uvM5kie0KDkV7c-IntWh-53" value="数据绑定" style="rounded=1;whiteSpace=wrap;html=1;fillColor=#CC99FF;" parent="1" vertex="1">
          <mxGeometry x="277.5" y="417" width="70" height="40" as="geometry"/>
        </mxCell>
        <mxCell id="uvM5kie0KDkV7c-IntWh-54" style="edgeStyle=orthogonalEdgeStyle;rounded=0;orthogonalLoop=1;jettySize=auto;html=1;exitX=1;exitY=0.5;exitDx=0;exitDy=0;entryX=0;entryY=0.5;entryDx=0;entryDy=0;fillColor=#CC99FF;" parent="1" source="uvM5kie0KDkV7c-IntWh-55" target="uvM5kie0KDkV7c-IntWh-56" edge="1">
          <mxGeometry relative="1" as="geometry"/>
        </mxCell>
        <mxCell id="uvM5kie0KDkV7c-IntWh-55" value="风险模型" style="rounded=1;whiteSpace=wrap;html=1;fillColor=#CC99FF;" parent="1" vertex="1">
          <mxGeometry x="362.5" y="417" width="70" height="40" as="geometry"/>
        </mxCell>
        <mxCell id="uvM5kie0KDkV7c-IntWh-56" value="业务对接" style="rounded=1;whiteSpace=wrap;html=1;fillColor=#CC99FF;" parent="1" vertex="1">
          <mxGeometry x="447.5" y="417" width="70" height="40" as="geometry"/>
        </mxCell>
      </root>
    </mxGraphModel>
  </diagram>
</mxfile>
